<svg width="1024" height="1024" xmlns="http://www.w3.org/2000/svg" class="icon">
 <defs>
  <style type="text/css"/>
 </defs>
 <g>
  <title>background</title>
  <rect fill="none" id="canvas_background" height="402" width="582" y="-1" x="-1"/>
 </g>
 <g>
  <title>Layer 1</title>
  <path id="svg_1" fill="#8a8a8a" d="m512,256s-97.2,-4.8 -144,-96c16.8,113.6 108,192 144,192s127.2,-78.8 144,-192c-46.8,91.2 -144,96 -144,96z"/>
  <path stroke="null" id="svg_3" d="m630.498279,1000.87614c-21.38384,-25.969564 -54.636636,-28.931021 -62.632566,-65.895311c-6.267216,-20.105567 -65.34965,-47.071111 -30.381833,-10.984375c27.001345,21.745567 59.080621,101.953524 -7.348403,76.611747c-50.524242,-16.464109 -52.69076,-67.303747 -66.233658,-105.365588c-44.040567,-27.1305 11.386373,-84.495964 -36.032794,-119.2573c-40.245442,-36.286688 -12.217016,-104.246284 -69.724393,-129.975544c-28.864879,-10.402297 -41.358936,61.420791 -46.219001,8.877503c-15.813815,-53.142256 -71.664015,25.832933 -108.906487,17.46032c-30.052537,-2.319738 50.270109,-20.870675 11.939716,-25.862901c-22.535341,10.95375 -43.385971,29.893451 -46.951239,-1.457365c-27.108668,-14.295527 -83.95612,-37.124909 -82.479393,-59.834714c23.541105,-6.566342 103.013198,12.433723 89.240998,-13.96637c-23.632256,-7.963344 -27.925174,-29.73165 1.019679,-15.122246c57.042225,1.588837 123.911938,-18.628782 171.374701,20.03965c24.756741,13.52549 49.098438,62.034612 62.351935,14.892819c42.723048,-45.75363 128.931248,-49.629116 155.268042,-108.868607c6.37317,-28.660814 -19.573598,-45.012642 -41.616178,-50.818082c-4.288403,-9.418967 -11.588622,-49.408396 -29.816352,-29.228468c0.830791,-17.662211 17.929336,-59.898791 -19.944565,-41.200642c-3.841459,-37.619416 32.377448,-75.151195 -15.535294,-102.546118c44.891675,7.394343 36.039233,-38.047941 26.261409,-45.254917c26.611393,-3.355183 57.841114,-24.618106 43.168512,-50.959248c28.899259,46.584523 29.901322,-56.515644 53.693933,-12.076373c43.79043,6.374408 -13.604073,-34.73817 26.672382,-25.561708c22.99831,0.698731 17.890478,-22.3748 38.550849,-4.960418c27.343668,-13.247397 -20.961616,-53.283192 23.187643,-25.465856c14.841395,11.448356 62.092214,41.433289 53.614329,1.865517c41.951655,39.735061 74.965417,-36.907114 109.825615,-52.778958c13.827378,-14.688431 43.896199,-30.233353 16.164872,-2.194739c-18.409995,35.740591 -80.86892,74.404324 -64.06555,109.917788c-15.209698,12.294923 30.687852,27.747509 -5.848509,23.092819c-21.64519,20.74607 29.019165,59.560696 33.062428,92.211808c-11.605238,22.371809 -55.795243,47.769744 -73.671213,46.967012c6.533488,-28.803722 -7.630218,-66.346114 -48.999812,-50.065034c23.174431,37.650403 54.505924,73.618416 74.136218,114.562554c19.187198,40.25004 50.295941,86.730694 91.223808,34.928855c26.08625,-33.016316 100.608202,-32.53837 80.137643,21.080255c-10.464617,52.651922 17.552336,122.141865 -36.281598,158.410349c-32.475593,55.565042 -68.479151,-20.660274 -42.964895,-49.496987c-6.501292,-8.240615 -11.530741,-14.05772 7.493696,-25.322094c-3.928242,-8.449472 54.74914,-40.238605 25.175967,-59.744908c-33.634644,33.865117 -82.849916,73.064137 -69.17242,123.404175c11.100783,33.733908 -80.453136,91.567624 -73.131971,35.583061c1.639895,-21.757495 36.62481,-63.925957 28.571739,-69.358537c-25.54216,42.553644 -61.877124,83.435513 -116.782955,96.069746c-45.670876,2.403103 -69.595124,35.054149 -47.906895,71.280835c4.144813,51.334835 -26.373543,97.795412 -33.399607,147.777113c13.060611,53.012164 92.577225,63.724592 103.370435,117.801052c18.546073,36.317773 -27.844941,30.950584 -49.459081,20.788394l0.000111,0.000033zm-113.079351,-158.152399c-6.694399,-23.963111 -20.470965,62.292299 -3.488847,16.511427l2.542259,-8.088211l0.946588,-8.423249l0,0.000033z" fill-opacity="null" stroke-opacity="null" stroke-width="null" fill="#8a8a8a"/>
 </g>
</svg>