<svg width="1024" height="1024" xmlns="http://www.w3.org/2000/svg" style="vector-effect: non-scaling-stroke;" stroke="null" class="icon">
 <defs style="vector-effect: non-scaling-stroke;" stroke="null">
  <style style="vector-effect: non-scaling-stroke;" stroke="null" type="text/css"/>
 </defs>
 <g stroke="null">
  <title stroke="null">background</title>
  <rect stroke="null" fill="none" id="canvas_background" height="402" width="582" y="-1" x="-1"/>
 </g>
 <g stroke="null">
  <title stroke="null">Layer 1</title>
  <path stroke="null" id="svg_4" d="m664.460836,385.485191c0,0 26.902314,-139.693693 0,-187.014434c-26.934001,-47.320741 -37.675915,-78.841369 -96.899031,-101.407273s-37.644228,-18.068643 -80.706943,-15.760314c-43.062715,2.26853 -78.964155,31.520628 -78.964155,47.280942c0,0 -26.902314,2.26853 -37.644228,15.800113c-10.773601,13.531583 -28.708477,76.572839 -28.708477,92.372952s8.967438,121.704647 17.934876,144.230753l-10.678539,4.497261c-8.967438,130.659371 35.869752,146.459484 35.869752,146.459484c16.128714,121.704647 32.289115,69.886645 32.289115,101.407273s-16.160401,20.297374 -16.160401,20.297374s-14.322551,49.549472 -50.192304,67.578316c-35.869752,17.989045 -234.99124,114.859258 -251.183328,135.156633c-16.192088,20.337173 -14.354238,114.938856 -14.354238,114.938856l853.871218,0c0,0 1.869537,-94.601683 -14.322551,-114.938856c-16.223775,-20.337173 -215.345263,-117.167587 -251.215015,-135.156633c-35.869752,-18.028844 -50.192304,-67.578316 -50.192304,-67.578316s-16.160401,11.223254 -16.160401,-20.297374s16.160401,20.297374 32.320802,-101.407273c0,0 44.805504,-15.800113 35.869752,-146.459484l-10.773601,0z" fill-opacity="null" stroke-opacity="null" stroke-width="null" fill="#8a8a8a"/>
 </g>
</svg>